<svg xmlns="http://www.w3.org/2000/svg" viewBox="0 0 128 128" width="128" height="128">
  <rect width="128" height="128" rx="28" fill="#7EB6C9"/>
  <!-- Yuzu fruit body -->
  <ellipse cx="64" cy="72" rx="38" ry="36" fill="#FFD4A5"/>
  <ellipse cx="64" cy="72" rx="38" ry="36" fill="#FFC847" opacity="0.5"/>
  <!-- Yuzu texture bumps (subtle) -->
  <circle cx="50" cy="62" r="4" fill="#F5C040" opacity="0.3"/>
  <circle cx="72" cy="58" r="3.5" fill="#F5C040" opacity="0.3"/>
  <circle cx="60" cy="80" r="3" fill="#F5C040" opacity="0.3"/>
  <circle cx="78" cy="74" r="3.5" fill="#F5C040" opacity="0.3"/>
  <circle cx="52" cy="82" r="2.5" fill="#F5C040" opacity="0.3"/>
  <!-- Leaf -->
  <path d="M64 36 Q58 28 50 30 Q56 24 64 36Z" fill="#A8D5BA"/>
  <path d="M64 36 Q70 26 78 28 Q72 22 64 36Z" fill="#7EBF8E"/>
  <!-- Stem -->
  <rect x="62" y="30" width="4" height="8" rx="2" fill="#A8D5BA"/>
  <!-- Cute face - eyes -->
  <ellipse cx="52" cy="70" rx="3" ry="3.5" fill="#5A5A5A"/>
  <ellipse cx="76" cy="70" rx="3" ry="3.5" fill="#5A5A5A"/>
  <!-- Cute face - eye highlights -->
  <circle cx="53" cy="69" r="1.2" fill="white"/>
  <circle cx="77" cy="69" r="1.2" fill="white"/>
  <!-- Cute face - smile -->
  <path d="M58 78 Q64 84 70 78" stroke="#5A5A5A" stroke-width="2" fill="none" stroke-linecap="round"/>
  <!-- Blush -->
  <ellipse cx="46" cy="77" rx="5" ry="3" fill="#F5A7A7" opacity="0.4"/>
  <ellipse cx="82" cy="77" rx="5" ry="3" fill="#F5A7A7" opacity="0.4"/>
</svg>
